# AST/ASF file generated using VICON BodyLanguage
# -----------------------------------------------
:version 1.10
:name VICON
:units
  mass 1.0
  length 0.45
  angle deg
:documentation
   .ast/.asf automatically generated from VICON data using
   VICON BodyBuilder and BodyLanguage model FoxedUp or BRILLIANT.MOD
:root
   order TX TY TZ RX RY RZ
   axis XYZ
   position 0 0 0  
   orientation 0 0 0 
:bonedata
  begin
     id 1 
     name lhipjoint
     direction 0.558404 -0.748506 0.357664 
     length 2.4234 
     axis 0 0 0  XYZ
  end
  begin
     id 2 
     name lfemur
     direction 0.34202 -0.939693 0  
     length 7.14567  
     axis 0 0 20  XYZ
    dof rx ry rz
    limits (-160.0 20.0)
           (-70.0 70.0)
           (-60.0 70.0)
  end
  begin
     id 3 
     name ltibia
     direction 0.34202 -0.939693 0   
     length 8.13956   
     axis 0 0 20   XYZ
    dof rx
    limits (-10.0 170.0)
  end
  begin
     id 4 
     name lfoot
     direction 0.0791314 -0.217412 0.972867   
     length 2.00134   
     axis -90 7.62852e-016 20   XYZ
    dof rx rz
    limits (-45.0 90.0)
           (-70.0 20.0)
  end
  begin
     id 5 
     name ltoes
     direction 1.53547e-011 -4.21922e-011 1   
     length 1.00735   
     axis -90 7.62852e-016 20   XYZ
    dof rx
    limits (-90.0 20.0)
  end
  begin
     id 6 
     name rhipjoint
     direction -0.496392 -0.78327 0.374276   
     length 2.31584  
     axis 0 0 0  XYZ 
  end
  begin
     id 7 
     name rfemur
     direction -0.34202 -0.939693 0   
     length 7.47417   
     axis 0 0 -20   XYZ
    dof rx ry rz
    limits (-160.0 20.0)
           (-70.0 70.0)
           (-70.0 60.0)
  end
  begin
     id 8 
     name rtibia
     direction -0.34202 -0.939693 0   
     length 7.69071   
     axis 0 0 -20   XYZ
    dof rx
    limits (-10.0 170.0)
 end
 begin
     id 9 
     name rfoot
     direction -0.103069 -0.28318 0.953512   
     length 2.16135  
     axis -90 -7.62852e-016 -20   XYZ
    dof rx rz
    limits (-45.0 90.0)
           (-20.0 70.0)
  end
  begin
     id 10 
     name rtoes
     direction -1.53581e-011 -4.21904e-011 1   
     length 1.07867   
     axis -90 -7.62852e-016 -20   XYZ
    dof rx
    limits (-90.0 20.0)
  end
  begin
     id 11 
     name lowerback
     direction -0.0258961 0.994776 -0.0987407   
     length 2.19412   
     axis 0 0 0   XYZ
    dof rx ry rz
    limits (-20.0 45.0)
           (-30.0 30.0)
           (-30.0 30.0)
  end
  begin
     id 12 
     name upperback
     direction 0.0402454 0.999185 0.00320666   
     length 2.18445   
     axis 0 0 0   XYZ
    dof rx ry rz
    limits (-20.0 45.0)
           (-30.0 30.0)
           (-30.0 30.0)
  end
  begin
     id 13 
     name thorax
     direction 0.0519376 0.997415 0.0496558   
     length 2.21487   
     axis 0 0 0   XYZ
    dof rx ry rz
    limits (-20.0 45.0)
           (-30.0 30.0)
           (-30.0 30.0)
  end
  begin
     id 14 
     name lowerneck
     direction -0.0921276 0.983211 0.157506   
     length 1.61201   
     axis 0 0 0   XYZ
    dof rx ry rz
    limits (-20.0 45.0)
           (-30.0 30.0)
           (-30.0 30.0)
  end
  begin
     id 15 
     name upperneck
     direction 0.0820814 0.98162 -0.172292   
     length 1.65275   
     axis 0 0 0   XYZ
    dof rx ry rz
    limits (-20.0 45.0)
           (-30.0 30.0)
           (-30.0 30.0)
  end
  begin
     id 16
     name head
     direction 0.0336554 0.996413 -0.0776455  
     length 1.66415  
     axis 0 0 0   XYZ
    dof rx ry rz
    limits (-20.0 45.0)
           (-30.0 30.0)
           (-30.0 30.0)
  end
  begin
     id 17 
     name lclavicle
     direction 0.94696 0.284418 -0.149576  
     length 3.41447  
     axis 0 0 0   XYZ
    dof ry rz
    limits (-20.0 10.0)
           (0.0 20.0)
  end
  begin
     id 18 
     name lhumerus
     direction 1 -0.000130264 -9.81312e-005   
     length 5.19964   
     axis 180 -30 -90   XYZ
    dof rx ry rz
    limits (-60.0 90.0)
           (-90.0 90.0)
           (-90.0 90.0)
  end
  begin
     id 19
     name lradius
     direction 1 -4.48961e-011 1.43854e-026   
     length 3.32189   
     axis 180 -30 -90   XYZ
    dof rx
    limits (-10.0 170.0)
  end
  begin
     id 20
     name lwrist
     direction 1 -4.48958e-011 3.1502e-026   
     length 1.66095   
     axis -1.97692e-014 90 90   XYZ
    dof ry
    limits (-180.0 0.0)
 end
  begin
     id 21 
     name lhand
     direction 1 -4.48927e-011 6.3004e-026   
     length 0.645616   
     axis -4.02019e-014 90 90   XYZ
    dof rx rz
    limits (-90.0 90.0)
           (-45.0 45.0)
  end
  begin
     id 22 
     name lfingers
     direction 1 -4.4904e-011 1.26008e-025   
     length 0.520512   
     axis -8.04039e-014 90 90   XYZ
    dof rx
    limits (0.0 90.0)
  end
  begin
     id 23
     name lthumb
     direction 0.707107 -6.34947e-011 0.707107   
     length 0.747354   
     axis -90 45 2.85299e-015   XYZ
    dof rx rz
    limits (-45.0 45.0)
           (-45.0 45.0)
  end
  begin
     id 24 
     name rclavicle
     direction -0.909391 0.383475 -0.161107   
     length 3.25176  
     axis 0 0 0   XYZ 
    dof ry rz
    limits (-10.0 20.0)
           (-20.0 0.0)
  end
  begin
     id 25 
     name rhumerus
     direction -1 -4.48965e-011 -1.81384e-027  
     length 5.6595   
     axis 180 30 90   XYZ
    dof rx ry rz
    limits (-90.0 60.0)
           (-90.0 90.0)
           (-90.0 90.0)
  end
  begin
     id 26 
     name rradius
     direction -1 -4.48996e-011 -8.09397e-027   
     length 3.37604   
     axis 180 30 90   XYZ
    dof rx
    limits (-10.0 170.0)
  end
  begin
     id 27 
     name rwrist
     direction -1 -4.48927e-011 -1.56669e-026   
     length 1.68802   
     axis 1.21142e-014 -90 -90   XYZ
    dof ry
    limits (-180.0 0.0)
  end
  begin
     id 28
     name rhand
     direction -1 -4.48912e-011 -3.13339e-026   
     length 0.824702   
     axis 1.99937e-014 -90 -90   XYZ
    dof rx rz
    limits (-90.0 90.0)
           (-45.0 45.0)
  end
  begin
     id 29
     name rfingers
     direction -1 -4.49011e-011 -6.26677e-026   
     length 0.664896   
     axis 3.99874e-014 -90 -90   XYZ
    dof rx
    limits (0.0 90.0)
  end
  begin
     id 30
     name rthumb
     direction -0.707107 -6.34931e-011 0.707107   
     length 0.954662   
     axis -90 -45 -2.85299e-015   XYZ
    dof rx rz
    limits (-45.0 45.0)
           (-45.0 45.0)
  end
:hierarchy
  begin
    root lhipjoint rhipjoint lowerback
    lhipjoint lfemur
    lfemur ltibia
    ltibia lfoot
    lfoot ltoes
    rhipjoint rfemur
    rfemur rtibia
    rtibia rfoot
    rfoot rtoes
    lowerback upperback
    upperback thorax
    thorax lowerneck lclavicle rclavicle
    lowerneck upperneck
    upperneck head
    lclavicle lhumerus
    lhumerus lradius
    lradius lwrist
    lwrist lhand lthumb
    lhand lfingers
    rclavicle rhumerus
    rhumerus rradius
    rradius rwrist
    rwrist rhand rthumb
    rhand rfingers
  end

#!OML:ASF F:\VICON\USERDATA\INSTALL\rory3\rory3.ASF
:FULLY-SPECIFIED
:DEGREES
257
root 12.2631 17.3415 9.69663 2.253 4.08331 3.0366
lowerback 7.23772 0.801595 -7.45944
upperback 0.125974 0.57281 3.10018
thorax -4.04925 0.463305 7.42962
lowerneck 7.45556 -16.0206 -19.8851
upperneck 20.9432 -26.3111 18.2049
head 10.7262 -13.0717 6.80223
rclavicle 1.40143e-014 3.33958e-014
rhumerus -28.7014 -5.97033 -67.3724
rradius 81.3111
rwrist -17.4028
rhand -16.2354 21.4602
rfingers 7.12502
rthumb 9.97304 -8.28354
lclavicle 1.40143e-014 3.33958e-014
lhumerus -63.0366 30.3595 25.4537
lradius 28.8678
lwrist 9.68121
lhand -10.5617 38.7223
lfingers 7.12502
lthumb 15.4427 68.1254
rfemur -24.0406 3.80673 4.06019
rtibia 36.5248
rfoot -10.5633 -5.9484
rtoes 16.6734
lfemur -9.63353 -3.9771 -19.5304
ltibia 33.7031
lfoot -22.2087 -1.99827
ltoes -5.18192
258
root 12.3066 17.3391 9.68775 2.25217 4.00435 3.19217
lowerback 7.37196 0.790991 -7.70172
upperback 0.279776 0.529764 3.06441
thorax -3.95706 0.436455 7.53595
lowerneck 8.10531 -16.1163 -20.631
upperneck 20.6482 -26.743 19.0628
head 10.8662 -13.3331 7.17433
rclavicle -3.57812e-015 -2.06736e-014
rhumerus -29.095 -6.07534 -68.1464
rradius 80.0168
rwrist -16.833
rhand -15.6848 21.5013
rfingers 7.12502
rthumb 10.5042 -8.21628
lclavicle -3.57812e-015 -2.06736e-014
lhumerus -64.1762 31.4115 24.7686
lradius 27.9201
lwrist 9.27147
lhand -10.5933 38.3435
lfingers 7.12502
lthumb 15.4122 67.749
rfemur -24.0065 3.96817 3.71944
rtibia 36.4104
rfoot -10.2732 -6.30404
rtoes 16.408
lfemur -9.71572 -3.83943 -19.8555
ltibia 33.8314
lfoot -22.1786 -2.05742
ltoes -4.65377
259
root 12.3603 17.3331 9.68902 2.19912 3.92931 3.41071
lowerback 7.49724 0.806137 -7.83922
upperback 0.359355 0.52689 2.97728
thorax -3.94362 0.433103 7.52198
lowerneck 8.60303 -16.1605 -21.0235
upperneck 20.4997 -26.9931 19.5259
head 10.9275 -13.4935 7.38647
rclavicle -8.54774e-015 2.62396e-014
rhumerus -29.7963 -6.37192 -68.8392
rradius 78.7047
rwrist -16.1129
rhand -15.14 21.7968
rfingers 7.12502
rthumb 11.0298 -7.89336
lclavicle -8.54774e-015 2.62396e-014
lhumerus -65.4727 32.531 23.683
lradius 26.7892
lwrist 8.1219
lhand -10.1176 37.2514
lfingers 7.12502
lthumb 15.8704 66.6211
rfemur -23.8574 3.67596 3.29673
rtibia 36.2646
rfoot -9.9933 -6.05961
rtoes 16.5382
lfemur -9.67156 -3.91078 -20.3375
ltibia 33.9926
lfoot -22.3063 -1.90873
ltoes -4.48902
260
root 12.405 17.3285 9.69357 2.12228 3.71044 3.37175
lowerback 7.51578 0.868188 -7.83252
upperback 0.461654 0.611104 2.9832
thorax -3.86201 0.467476 7.51462
lowerneck 8.79455 -16.2124 -21.0754
upperneck 20.4528 -27.1287 19.6759
head 10.9451 -13.5674 7.43728
rclavicle -3.67752e-015 1.98785e-014
rhumerus -30.2173 -6.96237 -69.5331
rradius 76.8545
rwrist -15.1068
rhand -14.7199 22.263
rfingers 7.12502
rthumb 11.4349 -7.40516
lclavicle -3.67752e-015 1.98785e-014
lhumerus -66.4578 33.1672 23.4935
lradius 26.138
lwrist 7.75828
lhand -10.2915 37.4284
lfingers 7.12502
lthumb 15.7029 66.8113
rfemur -23.7289 3.75331 3.19231
rtibia 36.0664
rfoot -9.86271 -5.93544
rtoes 16.2165
lfemur -9.63309 -3.82168 -20.4823
ltibia 34.1509
lfoot -22.4686 -1.82572
ltoes -4.41632
261
root 12.4406 17.3302 9.69362 2.01079 3.48157 2.99684
lowerback 7.99625 0.947867 -7.58493
upperback 0.208927 0.704913 3.09605
thorax -4.41544 0.545089 7.48504
lowerneck 9.31973 -16.2414 -21.0022
upperneck 20.5968 -27.2061 19.3911
head 10.8641 -13.6458 7.36399
rclavicle 8.94531e-016 -1.43125e-014
rhumerus -31.0294 -7.62225 -70.1076
rradius 74.4071
rwrist -14.0047
rhand -14.0393 22.8863
rfingers 7.12502
rthumb 12.0912 -6.74439
lclavicle 8.94531e-016 -1.43125e-014
lhumerus -67.1743 32.4969 24.4207
lradius 25.8316
lwrist 8.48942
lhand -10.458 37.646
lfingers 7.12502
lthumb 15.5425 67.0414
rfemur -23.6321 4.11805 3.5037
rtibia 35.8587
rfoot -9.6812 -6.10152
rtoes 15.913
lfemur -9.65673 -3.40507 -20.15
ltibia 34.3032
lfoot -22.5701 -2.14788
ltoes -3.91675
262
root 12.4843 17.3347 9.69846 1.88328 3.46291 2.77333
lowerback 7.29554 0.872587 -7.34079
upperback 0.935458 0.687798 3.15355
thorax -3.25003 0.455081 7.40235
lowerneck 8.90364 -16.4476 -20.5885
upperneck 20.1574 -27.3215 19.4376
head 10.7405 -13.6444 7.25235
rclavicle -5.26779e-015 5.56597e-015
rhumerus -30.4294 -8.13303 -70.8737
rradius 72.9947
rwrist -13.4216
rhand -13.4201 22.3255
rfingers 7.12502
rthumb 12.6882 -7.26906
lclavicle -5.26779e-015 5.56597e-015
lhumerus -67.459 33.7929 24.8365
lradius 25.0569
lwrist 7.76646
lhand -9.70838 36.3166
lfingers 7.12502
lthumb 16.2645 65.6544
rfemur -23.3968 4.05335 3.62731
rtibia 35.6747
rfoot -9.61698 -6.00885
rtoes 16.0387
lfemur -9.59125 -3.09186 -20.0211
ltibia 34.4171
lfoot -22.6544 -2.52408
ltoes -3.5514
263
root 12.5282 17.3295 9.70547 1.78935 3.50441 2.87268
lowerback 7.70735 0.856176 -7.3697
upperback 0.70018 0.629772 3.09793
thorax -3.7176 0.454892 7.36734
lowerneck 9.31915 -16.4029 -20.7563
upperneck 20.4806 -27.3706 19.3226
head 10.8093 -13.7079 7.26997
rclavicle -3.27995e-015 -1.59028e-015
rhumerus -31.3954 -8.5764 -71.3503
rradius 71.2427
rwrist -12.6563
rhand -12.8294 22.633
rfingers 7.12502
rthumb 13.2576 -6.92536
lclavicle -3.27995e-015 -1.59028e-015
lhumerus -68.7821 34.2107 23.9598
lradius 24.036
lwrist 5.74593
lhand -8.65314 34.9557
lfingers 7.12502
lthumb 17.2803 64.2074
rfemur -23.1241 3.93496 3.3704
rtibia 35.55
rfoot -9.54399 -5.88904
rtoes 15.7411
lfemur -9.49259 -3.01562 -20.2847
ltibia 34.4921
lfoot -22.69 -2.64483
ltoes -3.64661
264
root 12.5711 17.3187 9.71151 1.71294 3.39936 3.20075
lowerback 7.75062 0.918611 -7.62472
upperback 0.766113 0.684208 2.9739
thorax -3.68392 0.481107 7.37513
lowerneck 8.92843 -16.574 -20.5026
upperneck 20.8235 -27.5261 18.9737
head 10.9441 -13.7398 7.04197
rclavicle -1.78906e-014 -1.27222e-014
rhumerus -31.8637 -9.40589 -71.7702
rradius 69.2144
rwrist -11.7698
rhand -12.5799 23.0866
rfingers 7.12502
rthumb 13.4981 -6.45596
lclavicle -1.78906e-014 -1.27222e-014
lhumerus -69.6216 35.1376 23.3452
lradius 23.0329
lwrist 4.08904
lhand -9.13382 35.5791
lfingers 7.12502
lthumb 16.8176 64.8708
rfemur -22.9422 3.88727 2.85819
rtibia 35.4775
rfoot -9.27902 -5.71134
rtoes 14.8505
lfemur -9.37153 -2.84875 -20.7963
ltibia 34.5232
lfoot -22.6912 -2.80903
ltoes -3.21296
265
root 12.611 17.3114 9.7153 1.61781 3.19555 3.37972
lowerback 7.80394 0.969899 -7.86787
upperback 0.939534 0.731132 2.97698
thorax -3.54294 0.495493 7.51365
lowerneck 7.91275 -16.8928 -19.5269
upperneck 21.1807 -27.5567 17.8116
head 10.9014 -13.657 6.39884
rclavicle -9.54166e-015 -3.97569e-015
rhumerus -32.0609 -10.0492 -72.1074
rradius 67.1479
rwrist -10.8031
rhand -12.8113 22.7594
rfingers 7.12502
rthumb 13.275 -6.79779
lclavicle -9.54166e-015 -3.97569e-015
lhumerus -70.3397 36.0962 23.233
lradius 22.1764
lwrist 3.00061
lhand -10.1628 36.3227
lfingers 7.12502
lthumb 15.8268 65.6958
rfemur -22.8846 3.99666 2.53332
rtibia 35.466
rfoot -9.05995 -5.64325
rtoes 14.3893
lfemur -9.21281 -2.56876 -21.1094
ltibia 34.5451
lfoot -22.7007 -3.1762
ltoes -1.5463
266
root 12.6451 17.3095 9.7153 1.49073 3.02643 3.28649
lowerback 7.95215 1.00496 -7.84336
upperback 1.05182 0.77288 3.02443
thorax -3.51593 0.51096 7.54576
lowerneck 8.57833 -16.7295 -20.2156
upperneck 20.7583 -27.6311 18.8342
head 10.9345 -13.7483 6.89536
rclavicle -3.67752e-015 -2.3059e-014
rhumerus -32.2165 -10.7478 -72.4896
rradius 64.8478
rwrist -9.78427
rhand -13.2172 22.3849
rfingers 7.12502
rthumb 12.8839 -7.19743
lclavicle -3.67752e-015 -2.3059e-014
lhumerus -71.6514 37.4175 21.8895
lradius 21.0682
lwrist 0.403435
lhand -10.2446 35.7342
lfingers 7.12502
lthumb 15.7481 65.1135
rfemur -22.8416 4.28176 2.55102
rtibia 35.4692
rfoot -8.92949 -5.81333
rtoes 14.0162
lfemur -9.05555 -2.36618 -21.1011
ltibia 34.556
lfoot -22.7422 -3.35757
ltoes -0.789386
267
root 12.6809 17.3047 9.72249 1.44732 2.91407 3.38361
lowerback 7.90543 1.02239 -7.9262
upperback 1.11496 0.792148 2.98486
thorax -3.42736 0.514951 7.54871
lowerneck 9.10539 -16.7614 -19.7728
upperneck 20.4282 -27.5868 18.5915
head 10.591 -13.7537 6.81911
rclavicle 1.36167e-014 -1.66979e-014
rhumerus -32.421 -11.5235 -72.8656
rradius 62.5093
rwrist -9.37363
rhand -13.859 22.1629
rfingers 7.12502
rthumb 12.2651 -7.45747
lclavicle 1.36167e-014 -1.66979e-014
lhumerus -73.6226 39.0239 19.3059
lradius 19.8039
lwrist -3.36256
lhand -10.1359 35.0329
lfingers 7.12502
lthumb 15.8528 64.4039
rfemur -22.7903 4.29585 2.36738
rtibia 35.4752
rfoot -9.00478 -5.83952
rtoes 13.8071
lfemur -8.97321 -2.16165 -21.3154
ltibia 34.5726
lfoot -22.9287 -3.38308
ltoes -1.47298
268
root 12.7214 17.2957 9.73673 1.38485 2.87753 3.54347
lowerback 7.92461 0.979256 -7.99165
upperback 1.11244 0.725265 2.92723
thorax -3.42804 0.482108 7.53199
lowerneck 9.48352 -16.6451 -19.96
upperneck 20.3688 -27.4737 18.6082
head 10.5091 -13.7429 6.91074
rclavicle -1.96797e-014 1.03368e-014
rhumerus -32.8949 -12.2404 -73.1413
rradius 60.3304
rwrist -9.76752
rhand -14.2999 22.1561
rfingers 7.12502
rthumb 11.8399 -7.48917
lclavicle -1.96797e-014 1.03368e-014
lhumerus -74.9344 39.8498 18.2252
lradius 18.9927
lwrist -5.4909
lhand -10.2751 34.7574
lfingers 7.12502
lthumb 15.7187 64.1391
rfemur -22.6116 4.02407 2.11596
rtibia 35.4817
rfoot -9.37506 -5.68864
rtoes 14.6087
lfemur -8.80906 -2.01154 -21.6128
ltibia 34.5912
lfoot -23.2176 -3.51754
ltoes -1.8112
